# xmcd
#
# Track frame offsets: 
#        150
#        12873
#        29646
#        45069
#        61617
#        76140
#        95013
#        117486
#        135534
#        151182
#        163905
#        176853
#        191601
#
# Disc length: 2850 seconds
#
# Revision: 0
# Processed by: cddbd v1.5.2PL0 Copyright (c) Steve Scherf et al.
# Submitted via: ExactAudioCopy v1.0b3
#
DISCID=9f0b200d
DTITLE=Hawkins, Vince - Roads To Freedom
DYEAR=2013
DGENRE=Blues Rock
TTITLE0=Neighbor
TTITLE1=Mother Nature
TTITLE2=Room Full Of Mirrors
TTITLE3=Rock and Roll Is What We Know
TTITLE4=Evil B. Knockin'
TTITLE5=Koko Blue
TTITLE6=You Were There
TTITLE7=I'm A Gambler
TTITLE8=Making Time
TTITLE9=Just Ain't Right
TTITLE10=Taxman
TTITLE11=Misty Colored Rainbow
TTITLE12=Broke Down Soul
EXTD=
EXTT0=
EXTT1=
EXTT2=
EXTT3=
EXTT4=
EXTT5=
EXTT6=
EXTT7=
EXTT8=
EXTT9=
EXTT10=
EXTT11=
EXTT12=
PLAYORDER=
